<?xml version="1.0" encoding="utf-8"?>
<!-- Generator: Adobe Illustrator 23.0.2, SVG Export Plug-In . SVG Version: 6.00 Build 0)  -->
<svg version="1.1" id="Layer_1" xmlns="http://www.w3.org/2000/svg" xmlns:xlink="http://www.w3.org/1999/xlink" x="0px" y="0px"
	 viewBox="0 0 304.8 134.5" style="enable-background:new 0 0 304.8 134.5;" xml:space="preserve">
<style type="text/css">
	.st0{fill:#991554;}
	.st1{fill:#FFCCDF;}
	.st2{fill:#E35991;}
	.st3{fill:#F792BA;}
	.st4{fill:#BF3272;}
	.st5{fill:#FFFFFF;}
	.st6{fill:#D3D5D6;}
</style>
<g id="BG">
</g>
<g>
	<g>
		<path class="st0" d="M134.9,83.5c3.5-0.3,8.5,1.7,16.9,12.9c6.4,8.6,8.1,11.5,7,12.5c-1.6,1.4-3.7-2-11.5-12
			c-6.2-7.9-10.5-6.7-13.1-7.9C130.9,87.7,131.9,83.8,134.9,83.5z"/>
		<path class="st0" d="M123.3,71.3c0.2-0.4,0.6-0.9,2.3-0.5c2.5,0.6,4.9,2.6,7,6.6c1.9,3.7,2.1,4.8,1.8,5s-1.1-1.5-2.1-3.5
			c-1.3-2.5-3.1-4.9-6.6-5.7C123.4,72.8,123,71.9,123.3,71.3z"/>
		<path class="st0" d="M119.7,76.3c0-0.4,0.3-0.9,1.9-1.1c2.4-0.2,5.3,0.8,8.4,3.9c2.8,2.7,3.4,3.7,3.2,4s-1.4-1-3-2.5
			c-1.9-1.9-4.3-3.5-7.7-3.1C120.4,77.6,119.7,76.9,119.7,76.3z"/>
	</g>
	<g>
		<path class="st1" d="M150.5,67.3c-0.9,8.9-0.4,22.8,8.4,30.4c8.8,7.6,18.3,4.6,25.7,14s6.4,8.9,10.1,9.3c3.7,0.4,7.9-6.2,1.8-9.8
			s-8.8-8.5-8.7-12.9s-1.7-12.1-14.9-10.8c-13.3,1.3-9.1-4.6-6.5-7.1c2.6-2.6,11-10.3,15.5-24.2c4.4-13.4-2.9-24.8-12.3-27.3
			c-11-2.9-18.5-2.3-16.6-8.8c3.3-10.5,1.5-16.9-4.8-16.2c-7.1,0.7-5.1,10.2-2.9,17C147.3,27.4,152.2,50.1,150.5,67.3z"/>
		<path class="st2" d="M186,108.1c-1-2.5-5.4-9.3-5.7-9.7c-4.1-6.4-6.5-8.6-14.1-8.1c-5.7,0.4-7.6-1.4-4.2-5.9
			c1.3-1.8,11.8-13.7,11-25.4c-0.5-5-2-9.4-5.7-12.1c-10.1-7.4-16.4-2.3-17,2.8c0.5,6,0.6,12.1,0.1,17.6c-0.9,8.9-0.4,22.8,8.4,30.4
			c8.2,7,17,5,24.2,12.2C185,112,187,110.6,186,108.1z"/>
		<path class="st3" d="M189.5,108.1c-2.2-4.3-5.9-13.1-11-17.1c-2.2-1.7-5.6-2.1-9-2.1c-4.8,0-6.9-0.4-7.4-1.6
			c-1.4-3.1,8-9.8,13.7-22.2c0.4-0.9,0.7-1.7,1-2.6c3.9-11.1-3.3-23-10.5-26.7c-9.6-4.9-17.9-2.5-16.7,6.7c0.3,2.1,0.6,5.6,0.8,7.4
			c0.6-5.1,6.8-10.3,17-2.9c6.2,4.5,10.3,17.8-3.7,35.4l0,0c-1.4,1.8-4.2,4.8-3.1,6.6c0.8,1.4,3.5,1.4,5.1,1.4
			c8-0.3,9.6,0.6,14.7,8.1c0.7,1,2.7,4.2,4.1,6.7c0.4,0.7,1.3,2.3,1.6,3c0.8,2.2-0.5,3.5-2.7,2.2C189.2,117,192.5,114,189.5,108.1z"
			/>
		<path class="st4" d="M163.1,91.7c-2.4,0.3-3.8-0.5-4.2-1.6c-0.3-0.9,0.1-2,0.6-2.9c0,0,3.4-6,6.8-12.7c1.2-2.3,2.9-8.3,0.2-12.6
			c-4.6-7.4-10.4-6.4-12.7-4.5c-3.1,2.6-3,7.2-3.2,9.9c-0.8,9.4-0.4,22.8,8.4,30.4c6.3,5.5,13,5.5,19,8.5c3.3,1.3,1.3-3.8-0.1-6.4
			C175.6,95.8,173.8,90.3,163.1,91.7z"/>
		<path class="st0" d="M173.5,100c-0.1-2.9-4-6.6-7-6.9s-8.5,0.9-9.2-1.6c-0.7-2.4,1-4.7,4-9.5c2.9-4.8,3.6-7.8,1.1-11.3
			c-3.6-5-8.9-3.7-10,2.1c-0.7,3.8,0,11.7,0.2,13.8c0.6,4.2,2.2,7.7,5.7,10.4C162.7,100.1,173.6,103.2,173.5,100z"/>
	</g>
	<g>
		<path class="st1" d="M149.5,89.4c-2.8-7-3.4-14.7-3.4-19.8c0-10.3-1.6-24.3-8.6-29c-3-2-6.3-0.8-9.2-0.6c-3.1,0.2-5-0.5-5.7-3.8
			c-2.3-10.1-6.7-15-11.6-12.4c-5.4,3,0.7,10.5,5.7,15.7c4.7,4.8,19.4,22.8,26.2,38.2C144.5,81.3,146.7,85.5,149.5,89.4z"/>
		<path class="st2" d="M128.7,54.1c5.2,7.1,10.8,15.7,14.3,23.6c0.1,0.2,0.2,0.4,0.3,0.6c-0.3-1.5-1.7-6.8-3.1-11.7
			c-2.1-7.2-4.6-11.7-9-12.6C130,53.9,129.3,54,128.7,54.1z"/>
		<path class="st3" d="M141.7,64.9c-1.4-10.1-5-18.1-10.8-19.9c-4.1-1.3-6.6,0.3-7.3,2.4c1.6,2,3.3,4.3,5.1,6.7l0,0
			c0.6-0.1,1.4-0.2,2.5,0c4.4,0.8,6.9,5.4,9,12.6c1.4,4.9,2.8,10.2,3.1,11.7c1.1,2.5,2.6,5.4,4.4,8.2l0,0
			C144.1,80.5,142.6,71.3,141.7,64.9z"/>
	</g>
</g>
<g>
	<g>
		<path class="st5" d="M20.7,83.7v5.9c0.6-0.9,1.3-1.8,2.4-2.4c0.9-0.4,2.1-0.7,3.2-0.7c2.4,0,4.3,1,5.7,2.9
			c1.5,1.9,2.2,4.4,2.2,7.5s-0.7,5.6-2.2,7.5c-0.7,0.9-1.8,1.6-3.1,2.1c-1.3,0.4-2.5,0.6-3.8,0.6c-2.4,0-4.6-0.6-6.6-1.9
			c-2.1-1.3-2.9-3.5-2.9-7.1V81h2.5c0.7,0,1.3,0.3,1.8,0.7C20.6,82.3,20.7,82.9,20.7,83.7z M29.3,96.8c0-1.8-0.4-3.1-1.2-4.1
			c-0.7-1-1.8-1.6-3.1-1.6c-1.3,0-2.5,0.4-3.2,1.5c-0.7,1-1.2,2.5-1.2,4.3c0,2.1,0.3,3.5,1,4.6c0.7,1,1.8,1.6,3.1,1.6
			c1.3,0,2.5-0.6,3.2-1.6C29,100.3,29.3,98.7,29.3,96.8z"/>
		<path class="st5" d="M53.4,87v11.6c0,3.5-0.9,5.9-2.8,6.9c-1.9,1-3.8,1.6-6,1.6c-2.2-0.1-4.1-0.7-5.9-1.8s-2.7-3.4-2.7-6.8V87h5.2
			v12.7c0,1.2,0.3,2.1,1,2.7c0.7,0.6,1.5,0.9,2.4,0.9s1.8-0.3,2.4-0.9c0.7-0.6,1-1.5,1-2.7V89.5c0-0.7,0.3-1.3,0.7-1.8
			c0.4-0.4,1-0.7,1.8-0.7H53.4L53.4,87z"/>
		<path class="st5" d="M63.9,106.8c-1.6,0.1-3.4,0.1-5.3-0.1c-1.9-0.1-2.9-1.3-2.9-3.7V81.1h2.7c0.6,0,1.2,0.3,1.8,0.7
			c0.4,0.4,0.7,1,0.7,1.8V87h3.1v1c0,0.7-0.3,1.3-0.7,1.8c-0.4,0.4-1,0.7-1.8,0.7h-0.6v11c0,0.9,0.4,1.3,1.5,1.3h1.6V106.8
			L63.9,106.8z"/>
		<path class="st5" d="M73.9,106.8c-1.6,0.1-3.4,0.1-5.3-0.1c-1.9-0.1-2.9-1.3-2.9-3.7V81.1h2.7c0.6,0,1.2,0.3,1.8,0.7
			c0.4,0.4,0.7,1,0.7,1.8V87h3.1v1c0,0.7-0.3,1.3-0.7,1.8c-0.4,0.4-1,0.7-1.8,0.7h-0.6v11c0,0.9,0.4,1.3,1.5,1.3h1.6V106.8
			L73.9,106.8z"/>
		<path class="st5" d="M88.8,100.7h3.7c-0.6,2.1-1.6,3.7-3.1,4.7c-1.6,1.2-3.5,1.8-5.9,1.8c-2.8,0-5-0.9-6.6-2.8
			c-1.6-1.8-2.4-4.4-2.4-7.7c0-3.1,0.7-5.6,2.4-7.5c1.6-1.9,3.8-2.8,6.6-2.8c2.9,0,5.3,0.9,6.9,2.7c1.6,1.9,2.4,4.4,2.4,7.7
			c0,0.1,0,0.4,0,0.6c0,0.1,0,0.3,0,0.3c0,0.3,0,0.4-0.1,0.6h-13c0,1.6,0.4,2.7,1.2,3.4c0.6,0.7,1.6,1.2,2.9,1.2
			c0.9,0,1.6-0.1,2.2-0.6c0.1,0,0.3-0.1,0.4-0.3s0.3-0.3,0.4-0.4c0-0.1,0.3-0.3,0.6-0.6C87.7,100.9,88.2,100.7,88.8,100.7z
			 M79.9,94.8h7.7c-0.1-1.3-0.4-2.4-1-2.9c-0.6-0.7-1.6-1-2.8-1c-1,0-2.1,0.3-2.7,1C80.4,92.6,79.9,93.5,79.9,94.8z"/>
		<path class="st5" d="M94.5,106.8v-9.6c0-1.9,0.3-3.5,0.9-4.9c0.6-1.3,1.3-2.4,2.4-3.1c0.9-0.7,2.1-1.3,3.4-1.6
			c1.3-0.3,2.7-0.6,4-0.6c0.1,0,0.1,0,0.4,0s0.3,0,0.4,0v5.3h-1.8c-1.5,0-2.5,0.3-3.2,1c-0.7,0.7-1,1.8-1,3.2v10.2L94.5,106.8
			L94.5,106.8z"/>
		<path class="st5" d="M106.9,106.8V86.3c0-1.8,0.4-3.1,1.5-4c0.9-0.9,2.4-1.3,4.4-1.3c0.4,0,0.9,0,1.2,0.1c0.6,0,1,0,1.3,0.1v4.1
			H114c-0.7,0-1.2,0.1-1.5,0.3c-0.3,0.1-0.4,0.6-0.4,1.2v1.3h3.2v1.2c0,0.7-0.3,1.3-0.7,1.8c-0.4,0.4-1,0.7-1.8,0.7h-0.7v15
			L106.9,106.8L106.9,106.8L106.9,106.8z"/>
		<path class="st5" d="M116.6,81.1h2.7c0.7,0,1.3,0.3,1.8,0.7c0.4,0.4,0.7,1,0.7,1.8v23.3h-5.2V81.1L116.6,81.1z"/>
		<path class="st5" d="M126.3,113.9v-4.1h1.5c1,0,1.8-0.3,2.4-0.7c0.6-0.4,0.7-1.2,0.3-2.4l-6.9-19.7h5.7l4,14l3.5-12.2
			c0.3-1.2,1-1.8,2.4-1.8h3.5l-7.7,22.5c-0.6,1.6-1.3,2.8-2.2,3.5c-0.9,0.6-2.4,0.9-4.4,0.9c-0.1,0-0.3,0-0.6,0c-0.1,0-0.4,0-0.6,0
			c-0.1,0-0.3-0.1-0.6-0.1C126.6,113.9,126.5,113.9,126.3,113.9z"/>
	</g>
</g>
<g>
	<path class="st6" d="M58.2,111.8c0.2,0,0.4-0.1,0.7-0.1c0.3,0,0.5,0,0.7,0s0.5,0,0.8,0c0.3,0,0.5,0,0.7,0.1l4.6,11.1l4.6-11.1
		c0.2,0,0.4-0.1,0.6-0.1c0.2,0,0.5,0,0.7,0c0.2,0,0.5,0,0.7,0c0.3,0,0.5,0,0.7,0.1l0.8,17.8c-0.2,0-0.4,0.1-0.6,0.1
		c-0.2,0-0.4,0-0.6,0c-0.2,0-0.4,0-0.6,0c-0.2,0-0.4,0-0.6-0.1l-0.6-13.8l-4.4,10.1c-0.3,0-0.7,0.1-1,0.1c-0.3,0-0.6,0-0.9-0.1
		l-4.2-10.2l-0.6,13.9c-0.2,0-0.4,0.1-0.6,0.1c-0.2,0-0.4,0-0.6,0c-0.2,0-0.4,0-0.6,0c-0.2,0-0.4,0-0.6-0.1L58.2,111.8z"/>
	<path class="st6" d="M79.5,123.9c0,1.4,0.4,2.4,1.1,3c0.7,0.6,1.7,1,3,1c1.2,0,2.3-0.2,3.3-0.6c0.1,0.2,0.2,0.5,0.3,0.9
		c0.1,0.4,0.1,0.7,0.1,1.1c-0.5,0.2-1.1,0.4-1.8,0.5c-0.7,0.1-1.4,0.2-2.2,0.2c-1.2,0-2.1-0.2-3-0.5c-0.8-0.3-1.5-0.8-2-1.4
		c-0.5-0.6-0.9-1.3-1.2-2.1c-0.2-0.8-0.4-1.7-0.4-2.6c0-0.9,0.1-1.8,0.4-2.6c0.2-0.8,0.6-1.5,1.1-2.1c0.5-0.6,1.1-1.1,1.9-1.4
		c0.8-0.4,1.6-0.5,2.7-0.5c0.9,0,1.6,0.1,2.3,0.4c0.7,0.3,1.2,0.7,1.7,1.2c0.4,0.5,0.8,1.1,1,1.9c0.2,0.7,0.3,1.5,0.3,2.3
		c0,0.2,0,0.5,0,0.7c0,0.3,0,0.5,0,0.7H79.5z M85.8,122.1c0-0.5-0.1-0.9-0.2-1.3c-0.1-0.4-0.3-0.8-0.5-1.1c-0.2-0.3-0.5-0.6-0.9-0.8
		c-0.4-0.2-0.8-0.3-1.3-0.3c-1,0-1.8,0.3-2.3,0.9c-0.5,0.6-0.9,1.5-1,2.5H85.8z"/>
	<path class="st6" d="M99.6,111.5c0.2,0,0.4-0.1,0.6-0.1c0.2,0,0.4,0,0.6,0c0.2,0,0.4,0,0.6,0c0.2,0,0.4,0,0.6,0.1v17.8
		c-0.6,0.2-1.3,0.3-2.1,0.5c-0.8,0.1-1.6,0.2-2.6,0.2c-0.9,0-1.7-0.1-2.5-0.3c-0.8-0.2-1.5-0.6-2.1-1.1c-0.6-0.5-1.1-1.2-1.4-2
		c-0.3-0.8-0.5-1.8-0.5-3c0-1,0.2-2,0.5-2.8c0.3-0.8,0.7-1.6,1.3-2.2c0.6-0.6,1.2-1.1,2-1.4c0.8-0.3,1.7-0.5,2.6-0.5
		c0.4,0,0.9,0,1.3,0.1c0.4,0.1,0.8,0.1,1.2,0.2V111.5z M99.6,119.1c-0.3-0.1-0.7-0.2-1.1-0.3c-0.4-0.1-0.8-0.1-1.2-0.1
		c-0.7,0-1.3,0.1-1.8,0.4c-0.5,0.2-0.9,0.6-1.2,1c-0.3,0.4-0.6,0.9-0.7,1.5c-0.2,0.6-0.2,1.2-0.2,1.9c0,1.6,0.4,2.7,1.1,3.4
		c0.7,0.7,1.7,1,3,1c0.4,0,0.8,0,1.2-0.1c0.4,0,0.7-0.1,1-0.2V119.1z"/>
	<path class="st6" d="M106.7,118.9h-1.6c0-0.1-0.1-0.3-0.1-0.5c0-0.2,0-0.3,0-0.5c0-0.2,0-0.3,0-0.5c0-0.2,0-0.3,0.1-0.5h4v12.7
		c-0.2,0-0.4,0.1-0.6,0.1c-0.2,0-0.4,0-0.6,0c-0.2,0-0.4,0-0.6,0c-0.2,0-0.4,0-0.6-0.1V118.9z M106.2,114.1c0-0.2-0.1-0.4-0.1-0.6
		c0-0.2,0-0.4,0-0.6c0-0.2,0-0.4,0-0.6c0-0.2,0-0.4,0.1-0.6c0.2,0,0.4-0.1,0.7-0.1c0.2,0,0.5,0,0.6,0c0.2,0,0.4,0,0.6,0
		c0.2,0,0.5,0,0.7,0.1c0,0.2,0.1,0.4,0.1,0.6c0,0.2,0,0.4,0,0.6c0,0.2,0,0.4,0,0.6c0,0.2,0,0.4-0.1,0.6c-0.2,0-0.4,0.1-0.7,0.1
		c-0.2,0-0.4,0-0.6,0c-0.2,0-0.4,0-0.7,0C106.6,114.2,106.4,114.2,106.2,114.1z"/>
	<path class="st6" d="M119.8,121.3c0-1-0.2-1.6-0.7-2c-0.5-0.4-1.2-0.6-2.2-0.6c-0.6,0-1.1,0-1.6,0.1c-0.5,0.1-1,0.2-1.5,0.4
		c-0.3-0.5-0.5-1.2-0.5-2c0.6-0.2,1.2-0.3,1.9-0.4c0.7-0.1,1.3-0.1,2-0.1c1.6,0,2.9,0.4,3.8,1.1s1.3,2,1.3,3.6v7.9
		c-0.6,0.1-1.3,0.3-2.1,0.4c-0.8,0.1-1.7,0.2-2.5,0.2c-0.8,0-1.5-0.1-2.2-0.2s-1.2-0.4-1.7-0.7c-0.5-0.3-0.8-0.8-1.1-1.3
		c-0.2-0.5-0.4-1.1-0.4-1.9c0-0.7,0.1-1.3,0.4-1.9c0.3-0.5,0.7-1,1.2-1.3c0.5-0.4,1.1-0.6,1.7-0.8c0.6-0.2,1.3-0.3,2-0.3
		c0.5,0,1,0,1.3,0c0.3,0,0.6,0.1,0.9,0.1V121.3z M119.8,123.7c-0.2,0-0.6-0.1-0.9-0.1c-0.4,0-0.7-0.1-1-0.1c-1,0-1.8,0.2-2.3,0.6
		c-0.5,0.4-0.8,1-0.8,1.7c0,0.5,0.1,0.9,0.3,1.2c0.2,0.3,0.4,0.5,0.7,0.6s0.6,0.2,0.9,0.3c0.3,0,0.6,0,0.9,0c0.4,0,0.8,0,1.2-0.1
		c0.4,0,0.8-0.1,1.1-0.2V123.7z"/>
</g>
</svg>
