<?xml version="1.0" encoding="utf-8"?>
<!-- Generator: Adobe Illustrator 23.0.2, SVG Export Plug-In . SVG Version: 6.00 Build 0)  -->
<svg version="1.1" id="Layer_1" xmlns="http://www.w3.org/2000/svg" xmlns:xlink="http://www.w3.org/1999/xlink" x="0px" y="0px"
	 viewBox="0 0 304.8 134.5" style="enable-background:new 0 0 304.8 134.5;" xml:space="preserve">
<style type="text/css">
	.st0{fill:#991554;}
	.st1{fill:#FFCCDF;}
	.st2{fill:#E35991;}
	.st3{fill:#F792BA;}
	.st4{fill:#BF3272;}
	.st5{fill:#808E91;}
	.st6{fill:#4C5152;}
</style>
<g id="BG">
</g>
<g id="graphics">
	<g>
		<g>
			<path class="st0" d="M134.9,83.5c3.5-0.3,8.5,1.7,16.9,12.9c6.4,8.6,8.1,11.5,7,12.5c-1.6,1.4-3.7-2-11.5-12
				c-6.2-7.9-10.5-6.7-13.1-7.9C130.9,87.7,131.9,83.8,134.9,83.5z"/>
			<path class="st0" d="M123.3,71.3c0.2-0.4,0.6-0.9,2.3-0.5c2.5,0.6,4.9,2.6,7,6.6c1.9,3.7,2.1,4.8,1.8,5c-0.3,0.2-1.1-1.5-2.1-3.5
				c-1.3-2.5-3.1-4.9-6.6-5.7C123.4,72.8,123,71.9,123.3,71.3z"/>
			<path class="st0" d="M119.7,76.3c0-0.4,0.3-0.9,1.9-1.1c2.4-0.2,5.3,0.8,8.4,3.9c2.8,2.7,3.4,3.7,3.2,4c-0.2,0.3-1.4-1-3-2.5
				c-1.9-1.9-4.3-3.5-7.7-3.1C120.4,77.6,119.7,76.9,119.7,76.3z"/>
		</g>
		<g>
			<path class="st1" d="M150.5,67.3c-0.9,8.9-0.4,22.8,8.4,30.4c8.8,7.6,18.3,4.6,25.7,14c7.4,9.4,6.4,8.9,10.1,9.3
				c3.7,0.4,7.9-6.2,1.8-9.8s-8.8-8.5-8.7-12.9c0.1-4.4-1.7-12.1-14.9-10.8c-13.3,1.3-9.1-4.6-6.5-7.1c2.6-2.6,11-10.3,15.5-24.2
				c4.4-13.4-2.9-24.8-12.3-27.3c-11-2.9-18.5-2.3-16.6-8.8c3.3-10.5,1.5-16.9-4.8-16.2c-7.1,0.7-5.1,10.2-2.9,17
				C147.3,27.4,152.2,50.1,150.5,67.3z"/>
			<path class="st2" d="M186,108.1c-1-2.5-5.4-9.3-5.7-9.7c-4.1-6.4-6.5-8.6-14.1-8.1c-5.7,0.4-7.6-1.4-4.2-5.9
				c1.3-1.8,11.8-13.7,11-25.4c-0.5-5-2-9.4-5.7-12.1c-10.1-7.4-16.4-2.3-17,2.8c0.5,6,0.6,12.1,0.1,17.6
				c-0.9,8.9-0.4,22.8,8.4,30.4c8.2,7,17,5,24.2,12.2C185,112,187,110.6,186,108.1z"/>
			<path class="st3" d="M189.5,108.1c-2.2-4.3-5.9-13.1-11-17.1c-2.2-1.7-5.6-2.1-9-2.1c-4.8,0-6.9-0.4-7.4-1.6
				c-1.4-3.1,8-9.8,13.7-22.2c0.4-0.9,0.7-1.7,1-2.6c3.9-11.1-3.3-23-10.5-26.7c-9.6-4.9-17.9-2.5-16.7,6.7c0.3,2.1,0.6,5.6,0.8,7.4
				c0.6-5.1,6.8-10.3,17-2.9c6.2,4.5,10.3,17.8-3.7,35.4c0,0,0,0,0,0c-1.4,1.8-4.2,4.8-3.1,6.6c0.8,1.4,3.5,1.4,5.1,1.4
				c8-0.3,9.6,0.6,14.7,8.1c0.7,1,2.7,4.2,4.1,6.7c0.4,0.7,1.3,2.3,1.6,3c0.8,2.2-0.5,3.5-2.7,2.2C189.2,117,192.5,114,189.5,108.1z
				"/>
			<path class="st4" d="M163.1,91.7c-2.4,0.3-3.8-0.5-4.2-1.6c-0.3-0.9,0.1-2,0.6-2.9c0,0,3.4-6,6.8-12.7c1.2-2.3,2.9-8.3,0.2-12.6
				c-4.6-7.4-10.4-6.4-12.7-4.5c-3.1,2.6-3,7.2-3.2,9.9c-0.8,9.4-0.4,22.8,8.4,30.4c6.3,5.5,13,5.5,19,8.5c3.3,1.3,1.3-3.8-0.1-6.4
				C175.6,95.8,173.8,90.3,163.1,91.7z"/>
			<path class="st0" d="M173.5,100c-0.1-2.9-4-6.6-7-6.9c-3-0.3-8.5,0.9-9.2-1.6c-0.7-2.4,1-4.7,4-9.5c2.9-4.8,3.6-7.8,1.1-11.3
				c-3.6-5-8.9-3.7-10,2.1c-0.7,3.8,0,11.7,0.2,13.8c0.6,4.2,2.2,7.7,5.7,10.4C162.7,100.1,173.6,103.2,173.5,100z"/>
		</g>
		<g>
			<path class="st1" d="M149.5,89.4c-2.8-7-3.4-14.7-3.4-19.8c0-10.3-1.6-24.3-8.6-29c-3-2-6.3-0.8-9.2-0.6c-3.1,0.2-5-0.5-5.7-3.8
				c-2.3-10.1-6.7-15-11.6-12.4c-5.4,3,0.7,10.5,5.7,15.7c4.7,4.8,19.4,22.8,26.2,38.2C144.5,81.3,146.7,85.5,149.5,89.4z"/>
			<path class="st2" d="M128.7,54.1c5.2,7.1,10.8,15.7,14.3,23.6c0.1,0.2,0.2,0.4,0.3,0.6c-0.3-1.5-1.7-6.8-3.1-11.7
				c-2.1-7.2-4.6-11.7-9-12.6C130,53.9,129.3,54,128.7,54.1z"/>
			<path class="st3" d="M141.7,64.9c-1.4-10.1-5-18.1-10.8-19.9c-4.1-1.3-6.6,0.3-7.3,2.4c1.6,2,3.3,4.3,5.1,6.7h0
				c0.6-0.1,1.4-0.2,2.5,0c4.4,0.8,6.9,5.4,9,12.6c1.4,4.9,2.8,10.2,3.1,11.7c1.1,2.5,2.6,5.4,4.4,8.2c0,0,0,0,0,0
				C144.1,80.5,142.6,71.3,141.7,64.9z"/>
		</g>
	</g>
	<g>
		<g>
			<path class="st5" d="M59.9,98.7v4c0.4-0.6,0.9-1.2,1.6-1.6c0.6-0.3,1.4-0.5,2.2-0.5c1.6,0,2.9,0.7,3.9,2c1,1.3,1.5,3,1.5,5.1
				c0,2.1-0.5,3.8-1.5,5.1c-0.5,0.6-1.2,1.1-2.1,1.4c-0.9,0.3-1.7,0.4-2.6,0.4c-1.6,0-3.1-0.4-4.5-1.3s-2-2.4-2-4.8V96.9h1.7
				c0.5,0,0.9,0.2,1.2,0.5C59.8,97.8,59.9,98.2,59.9,98.7z M65.7,107.6c0-1.2-0.3-2.1-0.8-2.8c-0.5-0.7-1.2-1.1-2.1-1.1
				c-0.9,0-1.7,0.3-2.2,1c-0.5,0.7-0.8,1.7-0.8,2.9c0,1.4,0.2,2.4,0.7,3.1c0.5,0.7,1.2,1.1,2.1,1.1c0.9,0,1.7-0.4,2.2-1.1
				C65.5,110,65.7,108.9,65.7,107.6z"/>
			<path class="st5" d="M82.1,101v7.9c0,2.4-0.6,4-1.9,4.7c-1.3,0.7-2.6,1.1-4.1,1.1c-1.5-0.1-2.8-0.5-4-1.2
				c-1.2-0.7-1.8-2.3-1.8-4.6V101h3.5v8.6c0,0.8,0.2,1.4,0.7,1.8c0.5,0.4,1,0.6,1.6,0.6c0.6,0,1.2-0.2,1.6-0.6
				c0.5-0.4,0.7-1,0.7-1.8v-6.9c0-0.5,0.2-0.9,0.5-1.2c0.3-0.3,0.7-0.5,1.2-0.5L82.1,101L82.1,101z"/>
			<path class="st5" d="M89.2,114.4c-1.1,0.1-2.3,0.1-3.6-0.1c-1.3-0.1-2-0.9-2-2.5V97h1.8c0.4,0,0.8,0.2,1.2,0.5
				c0.3,0.3,0.5,0.7,0.5,1.2v2.3h2.1v0.7c0,0.5-0.2,0.9-0.5,1.2c-0.3,0.3-0.7,0.5-1.2,0.5h-0.4v7.5c0,0.6,0.3,0.9,1,0.9h1.1
				L89.2,114.4L89.2,114.4z"/>
			<path class="st5" d="M96,114.4c-1.1,0.1-2.3,0.1-3.6-0.1c-1.3-0.1-2-0.9-2-2.5V97h1.8c0.4,0,0.8,0.2,1.2,0.5
				c0.3,0.3,0.5,0.7,0.5,1.2v2.3H96v0.7c0,0.5-0.2,0.9-0.5,1.2c-0.3,0.3-0.7,0.5-1.2,0.5h-0.4v7.5c0,0.6,0.3,0.9,1,0.9H96V114.4
				L96,114.4z"/>
			<path class="st5" d="M106.1,110.3h2.5c-0.4,1.4-1.1,2.5-2.1,3.2c-1.1,0.8-2.4,1.2-4,1.2c-1.9,0-3.4-0.6-4.5-1.9
				c-1.1-1.2-1.6-3-1.6-5.2c0-2.1,0.5-3.8,1.6-5.1c1.1-1.3,2.6-1.9,4.5-1.9c2,0,3.6,0.6,4.7,1.8c1.1,1.3,1.6,3,1.6,5.2
				c0,0.1,0,0.3,0,0.4c0,0.1,0,0.2,0,0.2c0,0.2,0,0.3-0.1,0.4h-8.8c0,1.1,0.3,1.8,0.8,2.3c0.4,0.5,1.1,0.8,2,0.8
				c0.6,0,1.1-0.1,1.5-0.4c0.1,0,0.2-0.1,0.3-0.2c0.1-0.1,0.2-0.2,0.3-0.3c0-0.1,0.2-0.2,0.4-0.4
				C105.4,110.4,105.7,110.3,106.1,110.3z M100.1,106.3h5.2c-0.1-0.9-0.3-1.6-0.7-2c-0.4-0.5-1.1-0.7-1.9-0.7
				c-0.7,0-1.4,0.2-1.8,0.7C100.4,104.8,100.1,105.4,100.1,106.3z"/>
			<path class="st5" d="M110,114.4v-6.5c0-1.3,0.2-2.4,0.6-3.3c0.4-0.9,0.9-1.6,1.6-2.1c0.6-0.5,1.4-0.9,2.3-1.1
				c0.9-0.2,1.8-0.4,2.7-0.4c0.1,0,0.1,0,0.3,0s0.2,0,0.3,0v3.6h-1.2c-1,0-1.7,0.2-2.2,0.7c-0.5,0.5-0.7,1.2-0.7,2.2v6.9L110,114.4
				L110,114.4z"/>
			<path class="st5" d="M118.4,114.4v-13.9c0-1.2,0.3-2.1,1-2.7c0.6-0.6,1.6-0.9,3-0.9c0.3,0,0.6,0,0.8,0.1c0.4,0,0.7,0,0.9,0.1v2.8
				h-0.9c-0.5,0-0.8,0.1-1,0.2c-0.2,0.1-0.3,0.4-0.3,0.8v0.9h2.2v0.8c0,0.5-0.2,0.9-0.5,1.2c-0.3,0.3-0.7,0.5-1.2,0.5h-0.5v10.2
				L118.4,114.4L118.4,114.4L118.4,114.4z"/>
			<path class="st5" d="M125,97h1.8c0.5,0,0.9,0.2,1.2,0.5c0.3,0.3,0.5,0.7,0.5,1.2v15.8H125L125,97L125,97z"/>
			<path class="st5" d="M131.6,119.2v-2.8h1c0.7,0,1.2-0.2,1.6-0.5c0.4-0.3,0.5-0.8,0.2-1.6l-4.7-13.4h3.9l2.7,9.5l2.4-8.3
				c0.2-0.8,0.7-1.2,1.6-1.2h2.4l-5.2,15.3c-0.4,1.1-0.9,1.9-1.5,2.4c-0.6,0.4-1.6,0.6-3,0.6c-0.1,0-0.2,0-0.4,0c-0.1,0-0.3,0-0.4,0
				c-0.1,0-0.2-0.1-0.4-0.1C131.8,119.2,131.7,119.2,131.6,119.2z"/>
		</g>
	</g>
	<g>
		<path class="st6" d="M57.1,120.4c0.1,0,0.2,0,0.3,0c0.1,0,0.2,0,0.3,0c0.1,0,0.2,0,0.3,0c0.1,0,0.2,0,0.3,0c0,0,0,0.1,0,0.2
			c0,0.1,0,0.2,0,0.3c0,0.1,0,0.2,0,0.3c0,0.1,0,0.2,0,0.2c0.1-0.1,0.2-0.3,0.3-0.4c0.1-0.1,0.3-0.2,0.4-0.4
			c0.2-0.1,0.4-0.2,0.6-0.2c0.2-0.1,0.5-0.1,0.7-0.1c0.4,0,0.8,0.1,1.1,0.2c0.3,0.1,0.6,0.3,0.9,0.6c0.2,0.3,0.4,0.6,0.6,1.1
			c0.1,0.4,0.2,0.9,0.2,1.5c0,1.2-0.3,2-0.9,2.7c-0.6,0.7-1.5,1-2.6,1c-0.2,0-0.4,0-0.6,0c-0.2,0-0.4-0.1-0.5-0.1v3.1
			c-0.1,0-0.2,0-0.3,0s-0.2,0-0.3,0s-0.2,0-0.3,0c-0.1,0-0.2,0-0.3,0V120.4z M58.4,126.1c0.2,0.1,0.3,0.1,0.5,0.1c0.2,0,0.4,0,0.7,0
			c0.3,0,0.6-0.1,0.9-0.2c0.3-0.1,0.5-0.3,0.7-0.5c0.2-0.2,0.3-0.5,0.4-0.8c0.1-0.3,0.2-0.7,0.2-1.1c0-0.7-0.1-1.3-0.4-1.7
			c-0.3-0.4-0.7-0.6-1.3-0.6c-0.2,0-0.4,0-0.6,0.1c-0.2,0.1-0.4,0.2-0.5,0.4s-0.3,0.4-0.4,0.6c-0.1,0.2-0.1,0.5-0.1,0.9
			C58.4,123.4,58.4,126.1,58.4,126.1z"/>
		<path class="st6" d="M64.9,117.6c0.1,0,0.2,0,0.3,0s0.2,0,0.3,0s0.2,0,0.3,0c0.1,0,0.2,0,0.3,0v3.9c0.1-0.1,0.2-0.3,0.3-0.4
			s0.3-0.3,0.4-0.4s0.4-0.2,0.6-0.3c0.2-0.1,0.5-0.1,0.7-0.1c0.8,0,1.3,0.2,1.7,0.7c0.4,0.4,0.6,1.1,0.6,2v4.2c-0.1,0-0.2,0-0.3,0
			s-0.2,0-0.3,0c-0.1,0-0.2,0-0.3,0c-0.1,0-0.2,0-0.3,0v-3.9c0-0.6-0.1-1.1-0.3-1.4s-0.5-0.4-0.9-0.4c-0.2,0-0.5,0-0.7,0.1
			c-0.2,0.1-0.4,0.2-0.6,0.4c-0.2,0.2-0.3,0.4-0.4,0.7c-0.1,0.3-0.1,0.6-0.1,1.1v3.4c-0.1,0-0.2,0-0.3,0s-0.2,0-0.3,0s-0.2,0-0.3,0
			c-0.1,0-0.2,0-0.3,0L64.9,117.6L64.9,117.6z"/>
		<path class="st6" d="M75.1,127.3c-0.5,0-1-0.1-1.4-0.3c-0.4-0.2-0.7-0.4-1-0.7c-0.3-0.3-0.5-0.7-0.6-1.1c-0.1-0.4-0.2-0.9-0.2-1.4
			c0-0.5,0.1-1,0.2-1.4c0.1-0.4,0.3-0.8,0.6-1.1c0.3-0.3,0.6-0.6,1-0.7c0.4-0.2,0.9-0.3,1.4-0.3c0.5,0,1,0.1,1.4,0.3
			c0.4,0.2,0.7,0.4,1,0.7c0.3,0.3,0.5,0.7,0.6,1.1c0.1,0.4,0.2,0.9,0.2,1.4c0,0.5-0.1,1-0.2,1.4c-0.1,0.4-0.3,0.8-0.6,1.1
			s-0.6,0.6-1,0.7C76.1,127.2,75.7,127.3,75.1,127.3z M75.1,126.3c0.6,0,1.1-0.2,1.3-0.7c0.3-0.4,0.4-1,0.4-1.8s-0.1-1.4-0.4-1.8
			c-0.3-0.4-0.7-0.6-1.3-0.6c-0.6,0-1,0.2-1.3,0.6c-0.3,0.4-0.4,1-0.4,1.8s0.1,1.4,0.4,1.8S74.5,126.3,75.1,126.3z"/>
		<path class="st6" d="M80.2,121.5h-1l-0.1-0.2l2.2-2.5h0.1v1.7h1.7c0,0.1,0.1,0.3,0.1,0.5c0,0.1,0,0.2,0,0.3c0,0.1,0,0.2,0,0.3
			h-1.7v3.1c0,0.4,0,0.7,0,0.9c0,0.2,0.1,0.4,0.2,0.5c0.1,0.1,0.2,0.2,0.3,0.2c0.1,0,0.3,0.1,0.5,0.1c0.1,0,0.3,0,0.4,0
			c0.1,0,0.2,0,0.4-0.1c0.1,0.2,0.1,0.4,0.1,0.5c0,0.2,0,0.3,0,0.5c-0.2,0-0.4,0.1-0.6,0.1s-0.4,0-0.6,0c-0.6,0-1.1-0.2-1.5-0.5
			c-0.4-0.3-0.5-0.8-0.5-1.5L80.2,121.5L80.2,121.5z"/>
		<path class="st6" d="M87.4,127.3c-0.5,0-1-0.1-1.4-0.3c-0.4-0.2-0.7-0.4-1-0.7c-0.3-0.3-0.5-0.7-0.6-1.1c-0.1-0.4-0.2-0.9-0.2-1.4
			c0-0.5,0.1-1,0.2-1.4c0.1-0.4,0.3-0.8,0.6-1.1s0.6-0.6,1-0.7c0.4-0.2,0.9-0.3,1.4-0.3s1,0.1,1.4,0.3c0.4,0.2,0.7,0.4,1,0.7
			c0.3,0.3,0.5,0.7,0.6,1.1c0.1,0.4,0.2,0.9,0.2,1.4c0,0.5-0.1,1-0.2,1.4c-0.1,0.4-0.3,0.8-0.6,1.1s-0.6,0.6-1,0.7
			C88.3,127.2,87.9,127.3,87.4,127.3z M87.4,126.3c0.6,0,1.1-0.2,1.3-0.7c0.3-0.4,0.4-1,0.4-1.8s-0.1-1.4-0.4-1.8
			c-0.3-0.4-0.7-0.6-1.3-0.6s-1,0.2-1.3,0.6c-0.3,0.4-0.4,1-0.4,1.8s0.1,1.4,0.4,1.8C86.3,126.1,86.7,126.3,87.4,126.3z"/>
		<path class="st6" d="M95.8,126.3c0.8,0,1.3,0.2,1.7,0.5c0.4,0.3,0.5,0.7,0.5,1.3c0,0.4-0.1,0.7-0.3,1s-0.4,0.5-0.8,0.7
			c-0.3,0.2-0.7,0.4-1.1,0.5c-0.4,0.1-0.9,0.2-1.4,0.2c-0.9,0-1.6-0.1-2-0.4c-0.5-0.3-0.7-0.7-0.7-1.3c0-0.4,0.1-0.7,0.3-1
			c0.2-0.3,0.4-0.5,0.7-0.7c-0.2-0.1-0.3-0.3-0.4-0.4c-0.1-0.2-0.2-0.4-0.2-0.6c0-0.3,0.1-0.6,0.2-0.8c0.1-0.2,0.3-0.4,0.6-0.6
			c-0.3-0.2-0.5-0.5-0.7-0.8c-0.2-0.3-0.3-0.7-0.3-1.1c0-0.3,0.1-0.6,0.2-0.9c0.1-0.3,0.3-0.5,0.5-0.8c0.2-0.2,0.5-0.4,0.9-0.5
			c0.3-0.1,0.7-0.2,1.2-0.2c0.4,0,0.8,0.1,1.1,0.2c0.3,0.1,0.6,0.3,0.8,0.4c0.2-0.1,0.4-0.3,0.7-0.3c0.3-0.1,0.6-0.1,1-0.1
			c0,0.2,0.1,0.4,0.1,0.6c0,0.1,0,0.2,0,0.3c0,0.1,0,0.2,0,0.3H97c0.1,0.1,0.2,0.3,0.2,0.5c0.1,0.2,0.1,0.4,0.1,0.6
			c0,0.4-0.1,0.7-0.2,1c-0.1,0.3-0.3,0.5-0.6,0.7c-0.2,0.2-0.5,0.4-0.9,0.5c-0.3,0.1-0.7,0.2-1.1,0.2c-0.4,0-0.7,0-1-0.1
			c-0.1,0.1-0.2,0.2-0.4,0.3c-0.1,0.1-0.2,0.3-0.2,0.5c0,0.2,0.1,0.3,0.2,0.4c0.1,0.1,0.4,0.2,0.8,0.2L95.8,126.3z M94,127.3
			c-0.4,0-0.7,0.1-0.9,0.3c-0.2,0.2-0.3,0.5-0.3,0.8c0,0.2,0,0.4,0.1,0.5c0.1,0.1,0.2,0.2,0.3,0.3s0.3,0.1,0.5,0.2s0.4,0,0.6,0
			c0.7,0,1.2-0.1,1.6-0.3c0.4-0.2,0.6-0.5,0.6-0.9c0-0.3-0.1-0.5-0.2-0.6s-0.5-0.2-0.9-0.2L94,127.3z M94.6,124.1
			c0.5,0,0.8-0.1,1.1-0.4c0.2-0.3,0.3-0.6,0.3-1c0-0.4-0.1-0.8-0.3-1c-0.2-0.3-0.6-0.4-1.1-0.4s-0.8,0.1-1,0.4
			c-0.2,0.3-0.3,0.6-0.3,1c0,0.4,0.1,0.7,0.3,1C93.8,123.9,94.1,124.1,94.6,124.1z"/>
		<path class="st6" d="M99.4,120.4c0.1,0,0.2,0,0.3,0c0.1,0,0.2,0,0.3,0c0.1,0,0.2,0,0.3,0c0.1,0,0.2,0,0.3,0c0,0.1,0.1,0.3,0.1,0.5
			c0,0.2,0,0.4,0,0.5c0.2-0.3,0.4-0.6,0.7-0.8c0.3-0.2,0.7-0.3,1.2-0.3c0.1,0,0.1,0,0.2,0c0.1,0,0.1,0,0.2,0c0,0.1,0,0.2,0,0.2
			c0,0.1,0,0.2,0,0.3s0,0.2,0,0.3c0,0.1,0,0.2,0,0.3c-0.1,0-0.1,0-0.2,0s-0.1,0-0.2,0c-0.2,0-0.5,0-0.7,0.1
			c-0.2,0.1-0.4,0.2-0.6,0.3c-0.2,0.2-0.3,0.4-0.4,0.7c-0.1,0.3-0.2,0.7-0.2,1.1v3.3c-0.1,0-0.2,0-0.3,0s-0.2,0-0.3,0
			c-0.1,0-0.2,0-0.3,0c-0.1,0-0.2,0-0.3,0L99.4,120.4L99.4,120.4z"/>
		<path class="st6" d="M107.8,122.7c0-0.5-0.1-0.9-0.4-1.1s-0.6-0.3-1.1-0.3c-0.3,0-0.6,0-0.9,0.1c-0.3,0-0.5,0.1-0.8,0.2
			c-0.2-0.3-0.2-0.6-0.2-1c0.3-0.1,0.6-0.2,1-0.2c0.4-0.1,0.7-0.1,1-0.1c0.9,0,1.5,0.2,2,0.6c0.5,0.4,0.7,1,0.7,1.9v4.2
			c-0.3,0.1-0.7,0.1-1.1,0.2c-0.4,0.1-0.9,0.1-1.3,0.1c-0.4,0-0.8,0-1.2-0.1c-0.3-0.1-0.6-0.2-0.9-0.4c-0.2-0.2-0.4-0.4-0.6-0.7
			c-0.1-0.3-0.2-0.6-0.2-1s0.1-0.7,0.2-1c0.2-0.3,0.4-0.5,0.6-0.7s0.6-0.3,0.9-0.4c0.3-0.1,0.7-0.1,1.1-0.1c0.3,0,0.5,0,0.7,0
			c0.2,0,0.3,0,0.5,0L107.8,122.7L107.8,122.7z M107.8,124c-0.1,0-0.3,0-0.5-0.1c-0.2,0-0.4,0-0.5,0c-0.5,0-1,0.1-1.2,0.3
			s-0.4,0.5-0.4,0.9c0,0.3,0,0.5,0.1,0.6c0.1,0.1,0.2,0.3,0.4,0.3c0.1,0.1,0.3,0.1,0.5,0.1c0.2,0,0.3,0,0.5,0c0.2,0,0.4,0,0.6,0
			c0.2,0,0.4-0.1,0.6-0.1L107.8,124L107.8,124z"/>
		<path class="st6" d="M111,120.4c0.1,0,0.2,0,0.3,0c0.1,0,0.2,0,0.3,0c0.1,0,0.2,0,0.3,0c0.1,0,0.2,0,0.3,0c0,0,0,0.1,0,0.2
			c0,0.1,0,0.2,0,0.3c0,0.1,0,0.2,0,0.3s0,0.2,0,0.2c0.1-0.1,0.2-0.3,0.3-0.4c0.1-0.1,0.3-0.2,0.4-0.4c0.2-0.1,0.4-0.2,0.6-0.2
			c0.2-0.1,0.5-0.1,0.7-0.1c0.4,0,0.8,0.1,1.1,0.2c0.3,0.1,0.6,0.3,0.9,0.6c0.2,0.3,0.4,0.6,0.6,1.1c0.1,0.4,0.2,0.9,0.2,1.5
			c0,1.2-0.3,2-0.9,2.7c-0.6,0.7-1.5,1-2.6,1c-0.2,0-0.4,0-0.6,0c-0.2,0-0.4-0.1-0.5-0.1v3.1c-0.1,0-0.2,0-0.3,0s-0.2,0-0.3,0
			c-0.1,0-0.2,0-0.3,0c-0.1,0-0.2,0-0.3,0L111,120.4L111,120.4z M112.3,126.1c0.2,0.1,0.3,0.1,0.5,0.1c0.2,0,0.4,0,0.7,0
			c0.3,0,0.6-0.1,0.9-0.2c0.3-0.1,0.5-0.3,0.7-0.5c0.2-0.2,0.3-0.5,0.4-0.8c0.1-0.3,0.2-0.7,0.2-1.1c0-0.7-0.1-1.3-0.4-1.7
			c-0.3-0.4-0.7-0.6-1.3-0.6c-0.2,0-0.4,0-0.6,0.1c-0.2,0.1-0.4,0.2-0.5,0.4s-0.3,0.4-0.4,0.6c-0.1,0.2-0.1,0.5-0.1,0.9L112.3,126.1
			L112.3,126.1z"/>
		<path class="st6" d="M118.7,117.6c0.1,0,0.2,0,0.3,0s0.2,0,0.3,0c0.1,0,0.2,0,0.3,0c0.1,0,0.2,0,0.3,0v3.9
			c0.1-0.1,0.2-0.3,0.3-0.4s0.3-0.3,0.4-0.4s0.4-0.2,0.6-0.3c0.2-0.1,0.5-0.1,0.7-0.1c0.8,0,1.3,0.2,1.7,0.7s0.6,1.1,0.6,2v4.2
			c-0.1,0-0.2,0-0.3,0s-0.2,0-0.3,0c-0.1,0-0.2,0-0.3,0c-0.1,0-0.2,0-0.3,0v-3.9c0-0.6-0.1-1.1-0.3-1.4s-0.5-0.4-0.9-0.4
			c-0.2,0-0.5,0-0.7,0.1c-0.2,0.1-0.4,0.2-0.6,0.4c-0.2,0.2-0.3,0.4-0.4,0.7c-0.1,0.3-0.1,0.6-0.1,1.1v3.4c-0.1,0-0.2,0-0.3,0
			c-0.1,0-0.2,0-0.3,0c-0.1,0-0.2,0-0.3,0c-0.1,0-0.2,0-0.3,0L118.7,117.6L118.7,117.6z"/>
		<path class="st6" d="M128.6,127.2c-0.1,0-0.1,0-0.2,0c-0.1,0-0.1,0-0.2,0s-0.2,0-0.3,0c-0.1,0-0.2,0-0.2,0l-2.2-6.7
			c0.1,0,0.2,0,0.4,0c0.1,0,0.2,0,0.3,0c0.1,0,0.2,0,0.4,0c0.1,0,0.3,0,0.4,0l1.9,6.2l1.9-6.2c0.2,0,0.4,0,0.6,0c0.1,0,0.2,0,0.3,0
			c0.1,0,0.2,0,0.4,0l-2.6,8.1c-0.1,0.4-0.2,0.7-0.4,0.9c-0.1,0.2-0.3,0.4-0.4,0.6c-0.2,0.1-0.4,0.3-0.6,0.3
			c-0.2,0.1-0.4,0.1-0.7,0.1c-0.2,0-0.4,0-0.6,0c-0.2,0-0.4-0.1-0.5-0.1c0-0.2,0-0.4,0.1-0.5c0-0.2,0.1-0.3,0.2-0.5
			c0.1,0,0.2,0.1,0.3,0.1c0.1,0,0.3,0,0.4,0c0.1,0,0.2,0,0.3,0c0.1,0,0.2-0.1,0.3-0.1c0.1-0.1,0.2-0.2,0.2-0.3
			c0.1-0.1,0.1-0.3,0.2-0.5L128.6,127.2z"/>
	</g>
</g>
</svg>
