<?xml version="1.0" encoding="utf-8"?>
<!-- Generator: Adobe Illustrator 23.0.2, SVG Export Plug-In . SVG Version: 6.00 Build 0)  -->
<svg version="1.1" id="Layer_1" xmlns="http://www.w3.org/2000/svg" xmlns:xlink="http://www.w3.org/1999/xlink" x="0px" y="0px"
	 viewBox="0 0 889.4 1118.4" style="enable-background:new 0 0 889.4 1118.4;" xml:space="preserve">
<style type="text/css">
	.st0{fill:#991554;}
	.st1{fill:#FFCCDF;}
	.st2{fill:#E35991;}
	.st3{fill:#F792BA;}
	.st4{fill:#BF3272;}
</style>
<g id="BG">
</g>
<g id="graphics">
	<g>
		<g>
			<path class="st0" d="M276.3,731.8c31.8-2.5,78.4,15.8,154.6,118.5c59,79.3,73.9,105.8,63.9,114.9
				c-14.2,12.7-33.6-18.5-105.4-109.9c-57-72.8-96.7-61.9-120.3-72.2C239.3,770,248.8,734.1,276.3,731.8z"/>
			<path class="st0" d="M169.4,619.6c1.6-3.6,5.2-7.8,20.9-4.2c22.7,5.1,45.2,23.4,64.5,60.9c17.5,33.6,19.6,44.3,16.7,46
				c-3,1.6-10-13.3-19.6-32.2c-11.6-23-28.4-44.8-60.5-51.8C170.9,633.3,166.8,625.1,169.4,619.6z"/>
			<path class="st0" d="M136.9,665.5c0.3-3.7,2.5-8.7,17.8-10.1c22.1-2.2,48.1,7.6,77,35.7c26,25.2,31.2,34.3,29.1,36.4
				c-2.2,2.4-13.1-9-27.5-23.3c-17.6-17.5-39.4-31.9-70.6-28.7C142.6,677.6,136.3,671.4,136.9,665.5z"/>
		</g>
		<g>
			<path class="st1" d="M418.9,583.4c-7.9,81.9-3.4,209.4,76.9,278.7c80.3,69.4,168.4,42.4,235.7,128.4
				c67.5,86.1,58.7,82.1,92.2,85.5c33.6,3.6,72.5-56.6,16.3-89.7c-56.3-33.1-80.8-78.2-79.6-118.2c1.2-40-15.5-111.5-136.9-99.4
				c-121.5,11.9-83.3-42.1-59.7-65.5c23.4-23.4,100.6-94.9,142.4-221.8C746.3,358.8,679.5,254,593,230.7
				c-100.6-27-170.2-21.5-151.9-80.8C471,53.7,454.8-4.6,396.9,1c-64.8,6.3-46.6,93.7-26.3,156.3
				C389.6,216.6,434.2,425.4,418.9,583.4z"/>
			<path class="st2" d="M745.1,957.8c-9-23.3-49.7-85.4-52.2-89.3c-37.5-59-59.6-78.7-129-74.3c-52.7,3.4-70-12.5-38.5-53.7
				c11.9-16,108.1-125.4,101.2-232.8c-4.2-46.3-18.2-86.3-52.5-111.2c-93.1-68.2-150.5-21-156.3,25.7c4.6,54.5,6,110.6,1,161.4
				c-7.9,81.9-3.4,209.4,76.9,278.7c74.8,64.6,156.1,45.5,221.7,112.2C735.3,992.7,754,980.2,745.1,957.8z"/>
			<path class="st3" d="M777.1,957.2c-20.3-39.6-54.3-120.2-100.9-156.7c-19.9-15.5-51.2-19.3-82.4-19.1
				c-44.2,0.3-63.1-3.1-68.2-14.9c-12.4-28.5,73.1-89.7,125.2-203.9c3.6-7.8,6.4-15.8,9.3-24.3c35.8-101.6-29.9-210.6-96.3-244.5
				c-88.4-45.1-164.5-22.7-153.3,61.5c2.5,19.4,5.5,51,7.3,67.5c5.4-47.2,62.7-94.9,156.3-26.6c57,41.6,94.2,163.1-33.6,324.8
				c0,0,0,0.1-0.1,0.1c-12.5,16-38.2,43.7-28.7,60.5c7.5,12.5,31.9,13.1,46.6,12.5c73.1-2.7,87.6,6,134.6,73.9
				c6.6,9.4,24.5,38.2,37.6,61.3c3.9,6.7,11.8,20.7,14.3,28.1c7.2,20.6-4.6,31.9-24.6,19.9C774,1039.4,804.9,1011.4,777.1,957.2z"/>
			<path class="st4" d="M534.5,806.6c-22.4,2.8-35.1-4.3-38.5-14.2c-3-8.7,1.3-18.5,5.4-26.9c0,0,31.6-54.9,62.5-116.7
				c10.7-21.6,26.3-75.8,1.5-115.8c-42.4-68.4-95.2-59-116.9-40.9c-28.5,24-27.5,66.6-29.6,91.2c-7.6,86.3-3.4,209.4,76.9,278.7
				c57.8,50,119.4,50,174.6,78.1c30.2,11.5,11.6-34.5-1.3-59C649.6,844.7,632.5,794.1,534.5,806.6z"/>
			<path class="st0" d="M630.4,882.7c-0.4-26.3-36.6-60.3-64.5-63.1c-27.9-2.8-78.2,8.2-84.6-14.2s9.4-43.3,36.4-87.5
				c27-44.2,33.4-71.6,10.3-103.9c-33.1-46-81.2-33.7-91.3,19.4c-6.7,35.2-0.3,107,2.2,126.1c5.1,38.8,20.4,70.9,52.5,95.2
				C530.7,884.5,631,912.3,630.4,882.7z"/>
		</g>
		<g>
			<path class="st1" d="M410.2,785.8c-25.8-64.3-31.3-134.6-31.6-181.8c-0.3-94.5-14.5-222.6-78.8-265.7c-27.5-18.5-57.6-7.3-84-5.5
				c-28.4,1.8-46-4.9-52.7-34.5c-21.5-93-61.9-137.9-106-113.4c-49.1,27.3,6.7,96.6,52.7,143.7c43.3,44.2,177.8,209.1,240,350.6
				C363.9,711.1,383.9,749.7,410.2,785.8z"/>
			<path class="st2" d="M218.8,462.2c47.9,65.5,99,144.3,131.1,217c0.9,1.8,1.6,3.7,2.5,5.5c-2.8-13.9-15.5-62.7-28.5-107.3
				c-19.3-66-41.9-107.6-82.2-115.1C231.4,460.3,224.1,461.1,218.8,462.2z"/>
			<path class="st3" d="M338.6,561.5c-13-92.5-46.3-165.8-99.4-182.8c-37.5-11.9-60.5,2.7-67.2,22.1c14.6,18.4,30.7,39.1,46.9,61.5
				h0.1c5.1-1.2,12.4-1.8,22.7,0.1c40.3,7.6,63.1,49.1,82.2,115.1c13,44.8,25.7,93.7,28.5,107.3c10.4,23,23.7,49.1,40.3,74.9
				c0-0.1,0-0.1,0.1-0.3C360.6,703.8,346.6,619.4,338.6,561.5z"/>
		</g>
	</g>
</g>
</svg>
